<svg xmlns="http://www.w3.org/2000/svg" aria-hidden="true" style="position:absolute;width:0;height:0;overflow:hidden"><defs><symbol id="icon-windows-svgrepo-com" viewBox="0 0 32 32"><path d="M32 17.397V32l-18.434-2.341.002-12.262H32zm-20.992 0-.002 11.938L0 27.938v-10.54h11.008zM32 14.837H13.568l-.002-12.496L32 0v14.837zM11.006 2.666l.002 12.171H0V4.063l11.006-1.397z" /></symbol><symbol id="icon-apple-svgrepo-com" viewBox="0 0 32 32"><path d="M20.334 6.484c.87-1.046 1.484-2.48 1.484-3.916 0-.21-.016-.404-.06-.568-1.408.06-3.1.94-4.12 2.138-.794.896-1.544 2.346-1.544 3.782 0 .224.046.434.06.508.09.016.24.03.376.03 1.272 0 2.86-.838 3.804-1.974zm.99 2.288c-2.114 0-3.836 1.286-4.93 1.286-1.182 0-2.71-1.212-4.568-1.212-3.49 0-7.026 2.886-7.026 8.314 0 3.394 1.304 6.982 2.92 9.284C9.114 28.386 10.328 30 12.08 30c1.738 0 2.502-1.15 4.66-1.15 2.186 0 2.666 1.12 4.584 1.12 1.9 0 3.174-1.734 4.36-3.454 1.346-1.972 1.9-3.886 1.916-3.976-.106-.03-3.746-1.51-3.746-5.666 0-3.588 2.862-5.2 3.026-5.32-1.886-2.708-4.762-2.782-5.556-2.782z"/></symbol></defs></svg>